<svg height="800" width="800" xmlns="http://www.w3.org/2000/svg" viewBox="0 0 512 512"><circle cx="256" cy="256" r="247.409" fill="#ffdc64"/><circle cx="256" cy="256" r="201.593" fill="#fff082"/><path d="M219.347 201.02v22.908c0 8.652 4.074 16.8 10.996 21.992l16.494 12.37v36.905c-5.454 3.174-9.163 9.018-9.163 15.785v191.682c6.058.444 12.154.748 18.327.748 12.456 0 24.692-.944 36.653-2.72V310.98c0-6.767-3.709-12.61-9.163-15.785v-36.904l16.494-12.372a27.49 27.49 0 0010.996-21.992v-22.908h-91.633v.001zm128.286 73.307v100.796c0 10.121 8.206 18.327 18.327 18.327h9.163v44.671c-10.121 0-18.327 8.205-18.327 18.327v25.488a247.358 247.358 0 0054.98-33.766V146.04s-64.143 18.327-64.143 128.287z" fill="#c7cfe2"/><path d="M365.96 393.45h9.163V208.968c0-9.762-13.482-11.999-16.83-2.828-6.366 17.439-10.66 39.739-10.66 68.186v100.796c0 10.123 8.205 18.328 18.327 18.328zm9.163 44.671c-10.121 0-18.327 8.205-18.327 18.327v25.488c6.269-2.801 12.345-5.939 18.327-9.23v-34.585zM251.418 292.653c-7.591 0-13.745 6.154-13.745 13.745v196.263c6.058.444 12.155.748 18.327.748 3.073 0 6.118-.12 9.163-.233V306.398c0-7.59-6.154-13.745-13.745-13.745z" fill="#afb9d2"/><path d="M127.714 146.04c-32.895 0-59.562 34.871-59.562 77.888 0 30.34 13.275 56.603 32.637 69.454 5.251 3.485 8.597 9.162 8.597 15.464v32.164c-5.454 3.174-9.163 9.018-9.163 15.785v91.373a247.395 247.395 0 0054.98 33.766V356.796c0-6.767-3.709-12.61-9.163-15.785v-32.164c0-6.302 3.346-11.979 8.597-15.464 19.362-12.852 32.637-39.115 32.637-69.454.001-43.018-26.665-77.889-59.56-77.889z" fill="#c7cfe2"/><path d="M113.969 338.47c-7.591 0-13.745 6.154-13.745 13.745v95.955c8.703 7.064 17.868 13.578 27.49 19.424V352.215c0-7.591-6.155-13.745-13.745-13.745zM91.06 205.602c0-3.959.227-7.848.663-11.647 1.199-10.437-13.721-14.283-17.439-4.458-3.926 10.376-6.133 22.064-6.133 34.431 0 40.939 24.154 74.502 54.844 77.648 3.022.309 6.031-.81 8.403-2.707 6.83-5.465 6.117-16.478-1.733-20.337-22.555-11.089-38.605-39.559-38.605-72.93z" fill="#afb9d2"/><path d="M437.02 74.98C388.668 26.629 324.38 0 256 0S123.332 26.629 74.98 74.98C26.629 123.332 0 187.62 0 256s26.629 132.668 74.98 181.02C123.332 485.371 187.62 512 256 512s132.668-26.629 181.02-74.98C485.371 388.668 512 324.38 512 256s-26.629-132.668-74.98-181.02zM256 494.819C124.315 494.819 17.181 387.685 17.181 256S124.315 17.181 256 17.181 494.819 124.315 494.819 256 387.685 494.819 256 494.819z"/><path d="M310.98 91.633a8.591 8.591 0 00-8.591 8.591v123.705c0 5.917-2.826 11.57-7.56 15.119l-16.494 12.37a8.588 8.588 0 00-3.436 6.872v36.904a8.592 8.592 0 004.27 7.425c3.064 1.783 4.893 4.909 4.893 8.36v100.795a8.591 8.591 0 0017.182 0V310.98c0-7.735-3.417-15.071-9.163-20.132v-28.262l13.059-9.793c9.036-6.779 14.431-17.568 14.431-28.864V100.224a8.592 8.592 0 00-8.591-8.591zm-18.327 348.205a8.591 8.591 0 00-8.591 8.591v18.328a8.591 8.591 0 0017.182 0v-18.328a8.59 8.59 0 00-8.591-8.591zm-40.662-188.42l-16.494-12.37a18.99 18.99 0 01-7.56-15.119V100.224a8.591 8.591 0 00-17.182 0v123.705c0 11.296 5.395 22.087 14.432 28.864l13.058 9.792v28.262c-5.747 5.06-9.163 12.397-9.163 20.132v155.776a8.591 8.591 0 0017.182 0V310.979c0-3.451 1.829-6.577 4.893-8.36a8.59 8.59 0 004.27-7.425v-36.903a8.588 8.588 0 00-3.436-6.873z"/><path d="M249.892 91.633a8.591 8.591 0 00-8.591 8.591v109.96a8.591 8.591 0 0017.182 0v-109.96a8.592 8.592 0 00-8.591-8.591zm39.134 118.55v-109.96a8.591 8.591 0 00-17.182 0v109.96a8.591 8.591 0 0017.182 0zm127.924-71.001a8.59 8.59 0 00-7.533-1.402c-.754.215-18.674 5.508-36.177 25.511-28.264 32.303-34.197 78.212-34.197 111.036v100.796c0 14.842 12.075 26.917 26.917 26.917h.573v28.063a8.591 8.591 0 0017.182 0V393.45a8.591 8.591 0 00-8.591-8.591h-9.163c-5.369 0-9.736-4.367-9.736-9.736V274.327c0-42.251 10.087-76.422 29.168-98.819 6.312-7.41 12.669-12.414 17.794-15.692v242.798a8.591 8.591 0 0017.182 0V146.04a8.598 8.598 0 00-3.419-6.858zm-289.236-1.732c-37.58 0-68.152 38.794-68.152 86.479 0 34.9 16.354 65.998 41.235 79.48v33.256c-5.747 5.06-9.163 12.397-9.163 20.132v45.817a8.591 8.591 0 0017.182 0v-45.817c0-3.451 1.829-6.577 4.893-8.36a8.59 8.59 0 004.27-7.425v-42.991a8.591 8.591 0 00-5.246-7.913c-21.19-8.958-35.989-36.172-35.989-66.18 0-38.211 22.865-69.298 50.971-69.298s50.971 31.087 50.971 69.298c0 30.008-14.799 57.221-35.989 66.18a8.591 8.591 0 00-5.246 7.913v42.991a8.592 8.592 0 004.27 7.425c3.064 1.783 4.893 4.909 4.893 8.36v82.47a8.591 8.591 0 0017.182 0v-82.47c0-7.735-3.417-15.071-9.163-20.132v-33.256c24.881-13.483 41.235-44.581 41.235-79.48-.002-47.685-30.574-86.479-68.154-86.479z"/></svg>